<svg width="385" height="227" viewBox="0 0 385 227" fill="none" xmlns="http://www.w3.org/2000/svg">
<rect width="385" height="227" fill="#E5E5E5"/>
<rect width="385" height="227" fill="white"/>
<path d="M73.7148 198V190.8H84.7398V147.33L87.3498 137.115L81.2298 145.485L71.6898 153.945L66.8298 148.5L87.4398 129.6L94.1898 130.5V190.8H105.215V198H73.7148ZM134.86 153.81C135.07 153.69 135.43 153.495 135.94 153.225C136.48 152.955 137.14 152.685 137.92 152.415C138.7 152.145 139.585 151.92 140.575 151.74C141.595 151.53 142.72 151.425 143.95 151.425C147.07 151.425 149.845 151.92 152.275 152.91C154.735 153.87 156.805 155.205 158.485 156.915C160.195 158.595 161.485 160.575 162.355 162.855C163.255 165.135 163.705 167.565 163.705 170.145C163.705 173.175 163.165 175.98 162.085 178.56C161.005 181.11 159.52 183.42 157.63 185.49C155.77 187.53 153.58 189.33 151.06 190.89C148.57 192.45 145.9 193.77 143.05 194.85C140.23 195.9 137.32 196.695 134.32 197.235C131.32 197.745 128.38 198 125.5 198V190.8C127.75 190.74 130.03 190.47 132.34 189.99C134.65 189.48 136.87 188.82 139 188.01C141.16 187.17 143.17 186.165 145.03 184.995C146.92 183.825 148.555 182.535 149.935 181.125C151.345 179.685 152.455 178.125 153.265 176.445C154.075 174.765 154.48 172.98 154.48 171.09C154.48 169.56 154.225 168.075 153.715 166.635C153.235 165.195 152.5 163.92 151.51 162.81C150.55 161.67 149.335 160.755 147.865 160.065C146.395 159.375 144.685 159.03 142.735 159.03C141.205 159.03 139.825 159.135 138.595 159.345C137.365 159.525 136.255 159.765 135.265 160.065C134.305 160.335 133.48 160.65 132.79 161.01C132.1 161.37 131.53 161.7 131.08 162H125.5V130.5H159.385V137.7H134.86V153.81Z" fill="#F37500"/>
<path d="M176.054 158L183.245 135.9L183.84 132.5L187.529 132.16L195.995 158H192.595L190.079 150.35H181.664L179.182 158H176.054ZM185.863 134.88L185.251 139.3L182.497 147.8H189.246L186.475 139.3L185.863 134.88ZM203.743 158H200.513V139.3L203.743 138.96V142.071L204.78 140.252C204.984 140.116 205.245 139.974 205.562 139.827C205.88 139.68 206.231 139.549 206.616 139.436C207.013 139.311 207.438 139.209 207.891 139.13C208.345 139.051 208.804 139.011 209.268 139.011C210.164 139.011 210.917 139.158 211.529 139.453C212.153 139.736 212.657 140.15 213.042 140.694C213.428 141.238 213.7 141.895 213.858 142.666C214.028 143.437 214.113 144.298 214.113 145.25V158H210.883V145.25C210.883 144.638 210.838 144.111 210.747 143.669C210.668 143.227 210.521 142.864 210.305 142.581C210.101 142.286 209.824 142.071 209.472 141.935C209.121 141.799 208.685 141.731 208.163 141.731C207.778 141.731 207.387 141.793 206.99 141.918C206.594 142.031 206.203 142.184 205.817 142.377C205.443 142.558 205.075 142.762 204.712 142.989C204.361 143.216 204.038 143.437 203.743 143.652V158ZM201.992 136.325C202.038 135.872 202.145 135.43 202.315 134.999C202.497 134.568 202.723 134.189 202.995 133.86C203.279 133.531 203.596 133.271 203.947 133.078C204.299 132.874 204.678 132.772 205.086 132.772C205.528 132.772 205.942 132.851 206.327 133.01C206.713 133.169 207.081 133.344 207.432 133.537C207.784 133.73 208.129 133.905 208.469 134.064C208.809 134.223 209.155 134.302 209.506 134.302C209.744 134.302 209.954 134.245 210.135 134.132C210.317 134.007 210.47 133.86 210.594 133.69C210.719 133.509 210.821 133.31 210.9 133.095C210.98 132.88 211.036 132.67 211.07 132.466L212.702 132.534C212.668 133.033 212.555 133.514 212.362 133.979C212.181 134.444 211.943 134.857 211.648 135.22C211.365 135.571 211.025 135.855 210.628 136.07C210.243 136.285 209.829 136.393 209.387 136.393C209.025 136.393 208.668 136.314 208.316 136.155C207.965 135.996 207.608 135.826 207.245 135.645C206.883 135.452 206.514 135.277 206.14 135.118C205.766 134.959 205.381 134.88 204.984 134.88C204.78 134.88 204.593 134.925 204.423 135.016C204.265 135.107 204.117 135.226 203.981 135.373C203.857 135.52 203.749 135.685 203.658 135.866C203.568 136.036 203.5 136.206 203.454 136.376L201.992 136.325ZM227.683 158.289C226.425 158.289 225.275 158.045 224.232 157.558C223.201 157.059 222.311 156.379 221.563 155.518C220.815 154.645 220.231 153.62 219.812 152.441C219.404 151.251 219.2 149.97 219.2 148.599C219.2 147.228 219.398 145.958 219.795 144.791C220.192 143.612 220.758 142.598 221.495 141.748C222.232 140.887 223.121 140.218 224.164 139.742C225.218 139.255 226.391 139.011 227.683 139.011C228.941 139.011 230.091 139.255 231.134 139.742C232.177 140.218 233.072 140.887 233.82 141.748C234.568 142.598 235.152 143.612 235.571 144.791C235.99 145.958 236.2 147.228 236.2 148.599C236.2 149.97 235.996 151.251 235.588 152.441C235.191 153.62 234.625 154.645 233.888 155.518C233.151 156.379 232.256 157.059 231.202 157.558C230.148 158.045 228.975 158.289 227.683 158.289ZM232.97 149.058C232.97 148.14 232.868 147.239 232.664 146.355C232.471 145.471 232.16 144.683 231.729 143.992C231.298 143.289 230.743 142.723 230.063 142.292C229.383 141.861 228.567 141.646 227.615 141.646C226.708 141.646 225.926 141.833 225.269 142.207C224.612 142.581 224.073 143.08 223.654 143.703C223.235 144.326 222.923 145.035 222.719 145.828C222.526 146.621 222.43 147.437 222.43 148.276C222.43 149.194 222.526 150.095 222.719 150.979C222.923 151.863 223.235 152.651 223.654 153.342C224.085 154.033 224.634 154.594 225.303 155.025C225.983 155.444 226.799 155.654 227.751 155.654C228.646 155.654 229.423 155.467 230.08 155.093C230.737 154.719 231.281 154.226 231.712 153.614C232.143 152.991 232.46 152.282 232.664 151.489C232.868 150.696 232.97 149.885 232.97 149.058ZM249.124 142.377C248.92 142.275 248.676 142.173 248.393 142.071C248.109 141.969 247.815 141.878 247.509 141.799C247.203 141.72 246.891 141.657 246.574 141.612C246.268 141.567 245.973 141.544 245.69 141.544C244.488 141.544 243.638 141.725 243.14 142.088C242.641 142.439 242.392 142.972 242.392 143.686C242.392 144.162 242.556 144.559 242.885 144.876C243.213 145.182 243.638 145.46 244.16 145.709C244.681 145.958 245.259 146.196 245.894 146.423C246.54 146.638 247.169 146.899 247.781 147.205C248.223 147.42 248.67 147.675 249.124 147.97C249.577 148.265 249.985 148.61 250.348 149.007C250.71 149.404 251.005 149.851 251.232 150.35C251.458 150.849 251.572 151.41 251.572 152.033C251.572 153.178 251.379 154.147 250.994 154.94C250.608 155.733 250.081 156.379 249.413 156.878C248.755 157.365 247.979 157.722 247.084 157.949C246.2 158.176 245.253 158.289 244.245 158.289C243.859 158.289 243.423 158.249 242.936 158.17C242.448 158.102 241.961 158.006 241.474 157.881C240.986 157.745 240.522 157.586 240.08 157.405C239.638 157.224 239.269 157.031 238.975 156.827L240.097 154.583C240.369 154.719 240.692 154.849 241.066 154.974C241.44 155.087 241.825 155.189 242.222 155.28C242.618 155.371 243.009 155.444 243.395 155.501C243.791 155.546 244.143 155.569 244.449 155.569C244.97 155.569 245.469 155.518 245.945 155.416C246.432 155.303 246.857 155.127 247.22 154.889C247.594 154.651 247.888 154.345 248.104 153.971C248.33 153.586 248.444 153.115 248.444 152.56C248.444 152.141 248.353 151.772 248.172 151.455C248.002 151.138 247.764 150.86 247.458 150.622C247.163 150.373 246.817 150.146 246.421 149.942C246.024 149.738 245.605 149.545 245.163 149.364C244.721 149.171 244.267 148.979 243.803 148.786C243.338 148.582 242.896 148.361 242.477 148.123C242.08 147.896 241.695 147.647 241.321 147.375C240.958 147.103 240.635 146.797 240.352 146.457C240.068 146.117 239.842 145.737 239.672 145.318C239.502 144.887 239.417 144.4 239.417 143.856C239.417 142.995 239.57 142.258 239.876 141.646C240.182 141.023 240.612 140.518 241.168 140.133C241.723 139.748 242.392 139.464 243.174 139.283C243.956 139.102 244.817 139.011 245.758 139.011C246.188 139.011 246.613 139.045 247.033 139.113C247.452 139.181 247.854 139.272 248.24 139.385C248.625 139.487 248.976 139.612 249.294 139.759C249.611 139.906 249.883 140.054 250.11 140.201L249.124 142.377ZM281.502 155.807C281.151 156.17 280.765 156.504 280.346 156.81C279.927 157.116 279.462 157.382 278.952 157.609C278.442 157.824 277.875 157.989 277.252 158.102C276.64 158.227 275.954 158.289 275.195 158.289C273.688 158.289 272.401 158.023 271.336 157.49C270.271 156.957 269.398 156.243 268.718 155.348C268.049 154.453 267.556 153.427 267.239 152.271C266.933 151.115 266.78 149.908 266.78 148.65C266.78 147.845 266.854 147.052 267.001 146.27C267.148 145.477 267.369 144.723 267.664 144.009C267.959 143.295 268.327 142.632 268.769 142.02C269.211 141.408 269.727 140.881 270.316 140.439C270.905 139.997 271.568 139.651 272.305 139.402C273.053 139.141 273.875 139.011 274.77 139.011C275.994 139.011 277.054 139.209 277.949 139.606C278.844 140.003 279.587 140.558 280.176 141.272C280.765 141.986 281.202 142.842 281.485 143.839C281.768 144.836 281.91 145.941 281.91 147.154C281.91 147.505 281.899 147.891 281.876 148.31C281.853 148.729 281.819 149.126 281.774 149.5H270.01C270.01 150.35 270.123 151.143 270.35 151.88C270.588 152.617 270.917 153.263 271.336 153.818C271.755 154.362 272.26 154.793 272.849 155.11C273.45 155.416 274.118 155.569 274.855 155.569C275.58 155.569 276.209 155.518 276.742 155.416C277.286 155.303 277.751 155.172 278.136 155.025C278.521 154.866 278.833 154.708 279.071 154.549C279.32 154.39 279.513 154.266 279.649 154.175L281.502 155.807ZM278.68 146.95C278.691 146.825 278.697 146.701 278.697 146.576C278.708 146.451 278.714 146.327 278.714 146.202C278.714 145.556 278.64 144.961 278.493 144.417C278.346 143.873 278.119 143.403 277.813 143.006C277.518 142.598 277.139 142.281 276.674 142.054C276.209 141.827 275.66 141.714 275.025 141.714C274.266 141.714 273.614 141.839 273.07 142.088C272.537 142.326 272.084 142.638 271.71 143.023C271.347 143.397 271.053 143.811 270.826 144.264C270.611 144.717 270.446 145.148 270.333 145.556L269.449 147.409L272.475 146.95H278.68ZM290.403 158H287.173V139.3L290.403 138.96V142.071L291.44 140.252C291.644 140.116 291.905 139.974 292.222 139.827C292.54 139.68 292.891 139.549 293.276 139.436C293.673 139.311 294.098 139.209 294.551 139.13C295.005 139.051 295.464 139.011 295.928 139.011C296.824 139.011 297.577 139.158 298.189 139.453C298.813 139.736 299.317 140.15 299.702 140.694C300.088 141.238 300.36 141.895 300.518 142.666C300.688 143.437 300.773 144.298 300.773 145.25V158H297.543V145.25C297.543 144.638 297.498 144.111 297.407 143.669C297.328 143.227 297.181 142.864 296.965 142.581C296.761 142.286 296.484 142.071 296.132 141.935C295.781 141.799 295.345 141.731 294.823 141.731C294.438 141.731 294.047 141.793 293.65 141.918C293.254 142.031 292.863 142.184 292.477 142.377C292.103 142.558 291.735 142.762 291.372 142.989C291.021 143.216 290.698 143.437 290.403 143.652V158ZM332.469 155.807C332.118 156.17 331.732 156.504 331.313 156.81C330.894 157.116 330.429 157.382 329.919 157.609C329.409 157.824 328.842 157.989 328.219 158.102C327.607 158.227 326.921 158.289 326.162 158.289C324.655 158.289 323.368 158.023 322.303 157.49C321.238 156.957 320.365 156.243 319.685 155.348C319.016 154.453 318.523 153.427 318.206 152.271C317.9 151.115 317.747 149.908 317.747 148.65C317.747 147.845 317.821 147.052 317.968 146.27C318.115 145.477 318.336 144.723 318.631 144.009C318.926 143.295 319.294 142.632 319.736 142.02C320.178 141.408 320.694 140.881 321.283 140.439C321.872 139.997 322.535 139.651 323.272 139.402C324.02 139.141 324.842 139.011 325.737 139.011C326.961 139.011 328.021 139.209 328.916 139.606C329.811 140.003 330.554 140.558 331.143 141.272C331.732 141.986 332.169 142.842 332.452 143.839C332.735 144.836 332.877 145.941 332.877 147.154C332.877 147.505 332.866 147.891 332.843 148.31C332.82 148.729 332.786 149.126 332.741 149.5H320.977C320.977 150.35 321.09 151.143 321.317 151.88C321.555 152.617 321.884 153.263 322.303 153.818C322.722 154.362 323.227 154.793 323.816 155.11C324.417 155.416 325.085 155.569 325.822 155.569C326.547 155.569 327.176 155.518 327.709 155.416C328.253 155.303 328.718 155.172 329.103 155.025C329.488 154.866 329.8 154.708 330.038 154.549C330.287 154.39 330.48 154.266 330.616 154.175L332.469 155.807ZM329.647 146.95C329.658 146.825 329.664 146.701 329.664 146.576C329.675 146.451 329.681 146.327 329.681 146.202C329.681 145.556 329.607 144.961 329.46 144.417C329.313 143.873 329.086 143.403 328.78 143.006C328.485 142.598 328.106 142.281 327.641 142.054C327.176 141.827 326.627 141.714 325.992 141.714C325.233 141.714 324.581 141.839 324.037 142.088C323.504 142.326 323.051 142.638 322.677 143.023C322.314 143.397 322.02 143.811 321.793 144.264C321.578 144.717 321.413 145.148 321.3 145.556L320.416 147.409L323.442 146.95H329.647ZM341.37 151.608C341.37 152.356 341.41 152.985 341.489 153.495C341.58 153.994 341.705 154.402 341.863 154.719C342.033 155.025 342.237 155.246 342.475 155.382C342.725 155.507 343.008 155.569 343.325 155.569C343.575 155.569 343.801 155.558 344.005 155.535C344.209 155.501 344.385 155.461 344.532 155.416C344.702 155.371 344.855 155.32 344.991 155.263L346.164 157.32C346.074 157.411 345.926 157.513 345.722 157.626C345.53 157.728 345.297 157.83 345.025 157.932C344.753 158.034 344.442 158.119 344.09 158.187C343.75 158.255 343.382 158.289 342.985 158.289C341.965 158.289 341.138 158.102 340.503 157.728C339.869 157.354 339.376 156.844 339.024 156.198C338.673 155.552 338.435 154.804 338.31 153.954C338.197 153.093 338.14 152.175 338.14 151.2V134.2L337.8 130.8L341.37 130.46V151.608ZM181.63 199H178.4V180.3L181.63 179.96V183.071L182.667 181.252C182.871 181.116 183.126 180.974 183.432 180.827C183.738 180.68 184.084 180.549 184.469 180.436C184.854 180.311 185.268 180.209 185.71 180.13C186.152 180.051 186.605 180.011 187.07 180.011C188.339 180.011 189.371 180.323 190.164 180.946C190.957 181.558 191.473 182.346 191.711 183.309L193.003 181.32C193.4 181.003 193.961 180.708 194.686 180.436C195.411 180.153 196.244 180.011 197.185 180.011C198.046 180.011 198.783 180.158 199.395 180.453C200.007 180.736 200.506 181.15 200.891 181.694C201.288 182.238 201.577 182.895 201.758 183.666C201.939 184.437 202.03 185.298 202.03 186.25V199H198.8V186.42C198.8 185.808 198.755 185.275 198.664 184.822C198.585 184.357 198.437 183.972 198.222 183.666C198.018 183.349 197.74 183.116 197.389 182.969C197.038 182.81 196.601 182.731 196.08 182.731C195.751 182.731 195.406 182.788 195.043 182.901C194.692 183.014 194.335 183.167 193.972 183.36C193.609 183.541 193.252 183.757 192.901 184.006C192.561 184.244 192.238 184.488 191.932 184.737C191.966 185.066 191.983 185.343 191.983 185.57C191.994 185.785 192 186.069 192 186.42V199H188.77V186.42C188.77 185.196 188.566 184.278 188.158 183.666C187.75 183.043 187.019 182.731 185.965 182.731C185.625 182.731 185.262 182.782 184.877 182.884C184.492 182.986 184.106 183.128 183.721 183.309C183.347 183.49 182.979 183.7 182.616 183.938C182.253 184.165 181.925 184.403 181.63 184.652V199ZM222.035 196.807C221.684 197.17 221.299 197.504 220.879 197.81C220.46 198.116 219.995 198.382 219.485 198.609C218.975 198.824 218.409 198.989 217.785 199.102C217.173 199.227 216.488 199.289 215.728 199.289C214.221 199.289 212.935 199.023 211.869 198.49C210.804 197.957 209.931 197.243 209.251 196.348C208.583 195.453 208.09 194.427 207.772 193.271C207.466 192.115 207.313 190.908 207.313 189.65C207.313 188.845 207.387 188.052 207.534 187.27C207.682 186.477 207.903 185.723 208.197 185.009C208.492 184.295 208.86 183.632 209.302 183.02C209.744 182.408 210.26 181.881 210.849 181.439C211.439 180.997 212.102 180.651 212.838 180.402C213.586 180.141 214.408 180.011 215.303 180.011C216.527 180.011 217.587 180.209 218.482 180.606C219.378 181.003 220.12 181.558 220.709 182.272C221.299 182.986 221.735 183.842 222.018 184.839C222.302 185.836 222.443 186.941 222.443 188.154C222.443 188.505 222.432 188.891 222.409 189.31C222.387 189.729 222.353 190.126 222.307 190.5H210.543C210.543 191.35 210.657 192.143 210.883 192.88C211.121 193.617 211.45 194.263 211.869 194.818C212.289 195.362 212.793 195.793 213.382 196.11C213.983 196.416 214.652 196.569 215.388 196.569C216.114 196.569 216.743 196.518 217.275 196.416C217.819 196.303 218.284 196.172 218.669 196.025C219.055 195.866 219.366 195.708 219.604 195.549C219.854 195.39 220.046 195.266 220.182 195.175L222.035 196.807ZM219.213 187.95C219.225 187.825 219.23 187.701 219.23 187.576C219.242 187.451 219.247 187.327 219.247 187.202C219.247 186.556 219.174 185.961 219.026 185.417C218.879 184.873 218.652 184.403 218.346 184.006C218.052 183.598 217.672 183.281 217.207 183.054C216.743 182.827 216.193 182.714 215.558 182.714C214.799 182.714 214.147 182.839 213.603 183.088C213.071 183.326 212.617 183.638 212.243 184.023C211.881 184.397 211.586 184.811 211.359 185.264C211.144 185.717 210.98 186.148 210.866 186.556L209.982 188.409L213.008 187.95H219.213ZM235.714 182.884C235.26 182.884 234.813 182.975 234.371 183.156C233.929 183.337 233.504 183.581 233.096 183.887C232.688 184.193 232.302 184.55 231.94 184.958C231.577 185.366 231.243 185.797 230.937 186.25V199H227.707V180.3L230.937 179.96V183.785L232.637 180.81C232.784 180.719 232.965 180.629 233.181 180.538C233.407 180.436 233.662 180.351 233.946 180.283C234.229 180.204 234.529 180.141 234.847 180.096C235.175 180.039 235.51 180.011 235.85 180.011C236.36 180.011 236.785 180.056 237.125 180.147C237.476 180.238 237.737 180.323 237.907 180.402L237.737 183.224C237.567 183.167 237.312 183.099 236.972 183.02C236.632 182.929 236.212 182.884 235.714 182.884ZM251.639 184.074C251.197 183.677 250.67 183.354 250.058 183.105C249.457 182.856 248.834 182.731 248.188 182.731C247.236 182.731 246.426 182.912 245.757 183.275C245.088 183.626 244.544 184.108 244.125 184.72C243.717 185.332 243.417 186.046 243.224 186.862C243.031 187.667 242.935 188.517 242.935 189.412C242.935 190.341 243.02 191.231 243.19 192.081C243.371 192.92 243.672 193.662 244.091 194.308C244.51 194.954 245.066 195.47 245.757 195.855C246.46 196.229 247.332 196.416 248.375 196.416C249.248 196.416 249.984 196.314 250.585 196.11C251.197 195.906 251.667 195.691 251.996 195.464L253.22 197.861C252.585 198.292 251.843 198.637 250.993 198.898C250.154 199.159 249.202 199.289 248.137 199.289C246.72 199.289 245.479 199.011 244.414 198.456C243.349 197.889 242.459 197.141 241.745 196.212C241.042 195.271 240.51 194.195 240.147 192.982C239.796 191.758 239.62 190.494 239.62 189.191C239.62 188.012 239.79 186.873 240.13 185.774C240.481 184.663 241.008 183.683 241.711 182.833C242.425 181.983 243.32 181.303 244.397 180.793C245.485 180.272 246.76 180.011 248.222 180.011C249.265 180.011 250.194 180.175 251.01 180.504C251.837 180.821 252.608 181.371 253.322 182.153L251.639 184.074ZM270.56 199H266.99V196.246L265.392 198.15C265.199 198.297 264.978 198.439 264.729 198.575C264.48 198.711 264.225 198.836 263.964 198.949C263.715 199.051 263.46 199.13 263.199 199.187C262.95 199.255 262.717 199.289 262.502 199.289C261.652 199.289 260.836 199.159 260.054 198.898C259.283 198.626 258.603 198.235 258.014 197.725C257.436 197.204 256.971 196.563 256.62 195.804C256.28 195.033 256.11 194.149 256.11 193.152C256.11 192.098 256.32 191.186 256.739 190.415C257.17 189.633 257.714 188.987 258.371 188.477C259.04 187.956 259.782 187.57 260.598 187.321C261.414 187.06 262.213 186.93 262.995 186.93C263.641 186.93 264.208 186.964 264.695 187.032C265.194 187.1 265.613 187.179 265.953 187.27C266.35 187.372 266.695 187.485 266.99 187.61V187.015C266.99 186.346 266.95 185.746 266.871 185.213C266.792 184.68 266.627 184.233 266.378 183.87C266.14 183.496 265.789 183.213 265.324 183.02C264.871 182.827 264.264 182.731 263.505 182.731C262.893 182.731 262.304 182.776 261.737 182.867C261.17 182.946 260.666 183.037 260.224 183.139C259.703 183.264 259.221 183.394 258.779 183.53L257.555 181.252C258.054 181.025 258.62 180.821 259.255 180.64C259.799 180.481 260.445 180.34 261.193 180.215C261.941 180.079 262.768 180.011 263.675 180.011C264.978 180.011 266.055 180.187 266.905 180.538C267.755 180.889 268.424 181.382 268.911 182.017C269.398 182.652 269.738 183.417 269.931 184.312C270.124 185.196 270.22 186.182 270.22 187.27V195.94L270.56 199ZM266.99 189.939C266.673 189.894 266.333 189.848 265.97 189.803C265.664 189.769 265.313 189.735 264.916 189.701C264.519 189.667 264.106 189.65 263.675 189.65C263.04 189.65 262.457 189.712 261.924 189.837C261.403 189.962 260.949 190.166 260.564 190.449C260.179 190.721 259.878 191.078 259.663 191.52C259.448 191.962 259.34 192.5 259.34 193.135C259.34 193.645 259.425 194.11 259.595 194.529C259.765 194.948 259.997 195.311 260.292 195.617C260.587 195.923 260.932 196.161 261.329 196.331C261.737 196.49 262.173 196.569 262.638 196.569C262.853 196.569 263.08 196.541 263.318 196.484C263.567 196.416 263.811 196.331 264.049 196.229C264.298 196.127 264.542 196.008 264.78 195.872C265.029 195.736 265.262 195.6 265.477 195.464C265.987 195.135 266.491 194.761 266.99 194.342V189.939ZM283.935 183.02C282.893 183.02 281.992 183.218 281.232 183.615C280.473 184 279.844 184.527 279.345 185.196C278.847 185.865 278.478 186.652 278.24 187.559C278.002 188.466 277.883 189.435 277.883 190.466C277.883 191.475 278.002 192.359 278.24 193.118C278.478 193.877 278.784 194.512 279.158 195.022C279.544 195.532 279.98 195.917 280.467 196.178C280.955 196.427 281.453 196.552 281.963 196.552C282.496 196.552 282.989 196.461 283.442 196.28C283.907 196.099 284.332 195.872 284.717 195.6C285.103 195.328 285.448 195.033 285.754 194.716C286.06 194.387 286.327 194.081 286.553 193.798V183.02H283.935ZM286.553 199V196.246L284.938 198.167C284.734 198.303 284.513 198.439 284.275 198.575C284.037 198.711 283.771 198.83 283.476 198.932C283.182 199.034 282.853 199.119 282.49 199.187C282.139 199.255 281.742 199.289 281.3 199.289C280.371 199.289 279.504 199.062 278.699 198.609C277.895 198.144 277.192 197.504 276.591 196.688C276.002 195.872 275.532 194.903 275.18 193.781C274.84 192.648 274.67 191.407 274.67 190.058C274.67 188.698 274.886 187.429 275.316 186.25C275.758 185.06 276.382 184.023 277.186 183.139C277.991 182.255 278.96 181.564 280.093 181.065C281.238 180.555 282.513 180.3 283.918 180.3H286.553V171.46L289.783 171.8V195.94L290.123 199H286.553ZM303.353 199.289C302.095 199.289 300.945 199.045 299.902 198.558C298.871 198.059 297.981 197.379 297.233 196.518C296.485 195.645 295.901 194.62 295.482 193.441C295.074 192.251 294.87 190.97 294.87 189.599C294.87 188.228 295.068 186.958 295.465 185.791C295.862 184.612 296.428 183.598 297.165 182.748C297.902 181.887 298.791 181.218 299.834 180.742C300.888 180.255 302.061 180.011 303.353 180.011C304.611 180.011 305.761 180.255 306.804 180.742C307.847 181.218 308.742 181.887 309.49 182.748C310.238 183.598 310.822 184.612 311.241 185.791C311.66 186.958 311.87 188.228 311.87 189.599C311.87 190.97 311.666 192.251 311.258 193.441C310.861 194.62 310.295 195.645 309.558 196.518C308.821 197.379 307.926 198.059 306.872 198.558C305.818 199.045 304.645 199.289 303.353 199.289ZM308.64 190.058C308.64 189.14 308.538 188.239 308.334 187.355C308.141 186.471 307.83 185.683 307.399 184.992C306.968 184.289 306.413 183.723 305.733 183.292C305.053 182.861 304.237 182.646 303.285 182.646C302.378 182.646 301.596 182.833 300.939 183.207C300.282 183.581 299.743 184.08 299.324 184.703C298.905 185.326 298.593 186.035 298.389 186.828C298.196 187.621 298.1 188.437 298.1 189.276C298.1 190.194 298.196 191.095 298.389 191.979C298.593 192.863 298.905 193.651 299.324 194.342C299.755 195.033 300.304 195.594 300.973 196.025C301.653 196.444 302.469 196.654 303.421 196.654C304.316 196.654 305.093 196.467 305.75 196.093C306.407 195.719 306.951 195.226 307.382 194.614C307.813 193.991 308.13 193.282 308.334 192.489C308.538 191.696 308.64 190.885 308.64 190.058Z" fill="#F37500"/>
<path d="M207.8 58H204.23V36.07L203.635 32.67C203.975 32.6133 204.389 32.5623 204.876 32.517C205.375 32.4717 205.902 32.432 206.457 32.398C207.012 32.364 207.568 32.3413 208.123 32.33C208.678 32.3073 209.177 32.296 209.619 32.296C210.922 32.296 212.169 32.415 213.359 32.653C214.56 32.8797 215.62 33.265 216.538 33.809C217.456 34.353 218.187 35.067 218.731 35.951C219.275 36.835 219.547 37.9287 219.547 39.232C219.547 40.8187 219.264 42.139 218.697 43.193C218.13 44.2357 217.331 45.0687 216.3 45.692C215.269 46.3153 214.028 46.7573 212.577 47.018C211.138 47.2673 209.545 47.392 207.8 47.392V58ZM207.8 38.501V44.995C209.16 44.995 210.367 44.9157 211.421 44.757C212.475 44.5983 213.365 44.315 214.09 43.907C214.815 43.4877 215.365 42.9153 215.739 42.19C216.113 41.4647 216.3 40.5297 216.3 39.385C216.3 38.535 216.119 37.8097 215.756 37.209C215.405 36.6083 214.946 36.1153 214.379 35.73C213.812 35.3447 213.178 35.067 212.475 34.897C211.772 34.7157 211.075 34.625 210.384 34.625C210.191 34.625 209.959 34.6363 209.687 34.659C209.426 34.6703 209.16 34.6873 208.888 34.71C208.616 34.7327 208.35 34.761 208.089 34.795C207.84 34.829 207.63 34.863 207.46 34.897L207.8 38.501ZM231.1 41.884C230.647 41.884 230.199 41.9747 229.757 42.156C229.315 42.3373 228.89 42.581 228.482 42.887C228.074 43.193 227.689 43.55 227.326 43.958C226.964 44.366 226.629 44.7967 226.323 45.25V58H223.093V39.3L226.323 38.96V42.785L228.023 39.81C228.171 39.7193 228.352 39.6287 228.567 39.538C228.794 39.436 229.049 39.351 229.332 39.283C229.616 39.2037 229.916 39.1413 230.233 39.096C230.562 39.0393 230.896 39.011 231.236 39.011C231.746 39.011 232.171 39.0563 232.511 39.147C232.863 39.2377 233.123 39.3227 233.293 39.402L233.123 42.224C232.953 42.1673 232.698 42.0993 232.358 42.02C232.018 41.9293 231.599 41.884 231.1 41.884ZM243.49 58.289C242.232 58.289 241.081 58.0453 240.039 57.558C239.007 57.0593 238.118 56.3793 237.37 55.518C236.622 54.6453 236.038 53.6197 235.619 52.441C235.211 51.251 235.007 49.9703 235.007 48.599C235.007 47.2277 235.205 45.9583 235.602 44.791C235.998 43.6123 236.565 42.598 237.302 41.748C238.038 40.8867 238.928 40.218 239.971 39.742C241.025 39.2547 242.198 39.011 243.49 39.011C244.748 39.011 245.898 39.2547 246.941 39.742C247.983 40.218 248.879 40.8867 249.627 41.748C250.375 42.598 250.958 43.6123 251.378 44.791C251.797 45.9583 252.007 47.2277 252.007 48.599C252.007 49.9703 251.803 51.251 251.395 52.441C250.998 53.6197 250.431 54.6453 249.695 55.518C248.958 56.3793 248.063 57.0593 247.009 57.558C245.955 58.0453 244.782 58.289 243.49 58.289ZM248.777 49.058C248.777 48.14 248.675 47.239 248.471 46.355C248.278 45.471 247.966 44.6833 247.536 43.992C247.105 43.2893 246.55 42.7227 245.87 42.292C245.19 41.8613 244.374 41.646 243.422 41.646C242.515 41.646 241.733 41.833 241.076 42.207C240.418 42.581 239.88 43.0797 239.461 43.703C239.041 44.3263 238.73 45.0347 238.526 45.828C238.333 46.6213 238.237 47.4373 238.237 48.276C238.237 49.194 238.333 50.095 238.526 50.979C238.73 51.863 239.041 52.6507 239.461 53.342C239.891 54.0333 240.441 54.5943 241.11 55.025C241.79 55.4443 242.606 55.654 243.558 55.654C244.453 55.654 245.229 55.467 245.887 55.093C246.544 54.719 247.088 54.226 247.519 53.614C247.949 52.9907 248.267 52.2823 248.471 51.489C248.675 50.6957 248.777 49.8853 248.777 49.058ZM263.927 51.812L268.5 39.3L271.56 39.011L264.522 58.289C264.171 59.241 263.786 60.1873 263.366 61.128C262.958 62.0687 262.494 62.9073 261.972 63.644C261.451 64.392 260.873 64.9983 260.238 65.463C259.615 65.9277 258.918 66.16 258.147 66.16C257.569 66.16 257.003 66.041 256.447 65.803C255.892 65.5763 255.382 65.259 254.917 64.851L256.158 63.032C256.351 63.168 256.572 63.2927 256.821 63.406C257.071 63.5193 257.331 63.576 257.603 63.576C257.977 63.576 258.34 63.4287 258.691 63.134C259.043 62.8507 259.377 62.4823 259.694 62.029C260.023 61.5757 260.323 61.0657 260.595 60.499C260.879 59.9323 261.134 59.3657 261.36 58.799L254.271 39.3L257.501 39.011L262.159 51.812L263.043 55.756L263.927 51.812ZM288.809 55.807C288.457 56.1697 288.072 56.504 287.653 56.81C287.233 57.116 286.769 57.3823 286.259 57.609C285.749 57.8243 285.182 57.9887 284.559 58.102C283.947 58.2267 283.261 58.289 282.502 58.289C280.994 58.289 279.708 58.0227 278.643 57.49C277.577 56.9573 276.705 56.2433 276.025 55.348C275.356 54.4527 274.863 53.427 274.546 52.271C274.24 51.115 274.087 49.908 274.087 48.65C274.087 47.8453 274.16 47.052 274.308 46.27C274.455 45.4767 274.676 44.723 274.971 44.009C275.265 43.295 275.634 42.632 276.076 42.02C276.518 41.408 277.033 40.881 277.623 40.439C278.212 39.997 278.875 39.6513 279.612 39.402C280.36 39.1413 281.181 39.011 282.077 39.011C283.301 39.011 284.36 39.2093 285.256 39.606C286.151 40.0027 286.893 40.558 287.483 41.272C288.072 41.986 288.508 42.8417 288.792 43.839C289.075 44.8363 289.217 45.9413 289.217 47.154C289.217 47.5053 289.205 47.8907 289.183 48.31C289.16 48.7293 289.126 49.126 289.081 49.5H277.317C277.317 50.35 277.43 51.1433 277.657 51.88C277.895 52.6167 278.223 53.2627 278.643 53.818C279.062 54.362 279.566 54.7927 280.156 55.11C280.756 55.416 281.425 55.569 282.162 55.569C282.887 55.569 283.516 55.518 284.049 55.416C284.593 55.3027 285.057 55.1723 285.443 55.025C285.828 54.8663 286.14 54.7077 286.378 54.549C286.627 54.3903 286.82 54.2657 286.956 54.175L288.809 55.807ZM285.987 46.95C285.998 46.8253 286.004 46.7007 286.004 46.576C286.015 46.4513 286.021 46.3267 286.021 46.202C286.021 45.556 285.947 44.961 285.8 44.417C285.652 43.873 285.426 43.4027 285.12 43.006C284.825 42.598 284.445 42.2807 283.981 42.054C283.516 41.8273 282.966 41.714 282.332 41.714C281.572 41.714 280.921 41.8387 280.377 42.088C279.844 42.326 279.391 42.6377 279.017 43.023C278.654 43.397 278.359 43.8107 278.133 44.264C277.917 44.7173 277.753 45.148 277.64 45.556L276.756 47.409L279.782 46.95H285.987ZM304.799 43.074C304.357 42.6773 303.83 42.3543 303.218 42.105C302.617 41.8557 301.994 41.731 301.348 41.731C300.396 41.731 299.586 41.9123 298.917 42.275C298.248 42.6263 297.704 43.108 297.285 43.72C296.877 44.332 296.577 45.046 296.384 45.862C296.191 46.6667 296.095 47.5167 296.095 48.412C296.095 49.3413 296.18 50.231 296.35 51.081C296.531 51.9197 296.832 52.662 297.251 53.308C297.67 53.954 298.226 54.4697 298.917 54.855C299.62 55.229 300.492 55.416 301.535 55.416C302.408 55.416 303.144 55.314 303.745 55.11C304.357 54.906 304.827 54.6907 305.156 54.464L306.38 56.861C305.745 57.2917 305.003 57.6373 304.153 57.898C303.314 58.1587 302.362 58.289 301.297 58.289C299.88 58.289 298.639 58.0113 297.574 57.456C296.509 56.8893 295.619 56.1413 294.905 55.212C294.202 54.2713 293.67 53.1947 293.307 51.982C292.956 50.758 292.78 49.4943 292.78 48.191C292.78 47.0123 292.95 45.8733 293.29 44.774C293.641 43.6633 294.168 42.683 294.871 41.833C295.585 40.983 296.48 40.303 297.557 39.793C298.645 39.2717 299.92 39.011 301.382 39.011C302.425 39.011 303.354 39.1753 304.17 39.504C304.997 39.8213 305.768 40.371 306.482 41.153L304.799 43.074ZM314.71 51.608C314.71 52.356 314.75 52.985 314.829 53.495C314.92 53.9937 315.044 54.4017 315.203 54.719C315.373 55.025 315.577 55.246 315.815 55.382C316.064 55.5067 316.348 55.569 316.665 55.569C316.914 55.569 317.141 55.5577 317.345 55.535C317.549 55.501 317.725 55.4613 317.872 55.416C318.042 55.3707 318.195 55.3197 318.331 55.263L319.504 57.32C319.413 57.4107 319.266 57.5127 319.062 57.626C318.869 57.728 318.637 57.83 318.365 57.932C318.093 58.034 317.781 58.119 317.43 58.187C317.09 58.255 316.722 58.289 316.325 58.289C315.305 58.289 314.478 58.102 313.843 57.728C313.208 57.354 312.715 56.844 312.364 56.198C312.013 55.552 311.775 54.804 311.65 53.954C311.537 53.0927 311.48 52.1747 311.48 51.2V42.02H308.93V39.3H311.48V35.747L314.625 33.86V39.3H320.405L320.065 42.02H314.71V51.608ZM331.876 58.289C330.618 58.289 329.468 58.0453 328.425 57.558C327.394 57.0593 326.504 56.3793 325.756 55.518C325.008 54.6453 324.425 53.6197 324.005 52.441C323.597 51.251 323.393 49.9703 323.393 48.599C323.393 47.2277 323.592 45.9583 323.988 44.791C324.385 43.6123 324.952 42.598 325.688 41.748C326.425 40.8867 327.315 40.218 328.357 39.742C329.411 39.2547 330.584 39.011 331.876 39.011C333.134 39.011 334.285 39.2547 335.327 39.742C336.37 40.218 337.265 40.8867 338.013 41.748C338.761 42.598 339.345 43.6123 339.764 44.791C340.184 45.9583 340.393 47.2277 340.393 48.599C340.393 49.9703 340.189 51.251 339.781 52.441C339.385 53.6197 338.818 54.6453 338.081 55.518C337.345 56.3793 336.449 57.0593 335.395 57.558C334.341 58.0453 333.168 58.289 331.876 58.289ZM337.163 49.058C337.163 48.14 337.061 47.239 336.857 46.355C336.665 45.471 336.353 44.6833 335.922 43.992C335.492 43.2893 334.936 42.7227 334.256 42.292C333.576 41.8613 332.76 41.646 331.808 41.646C330.902 41.646 330.12 41.833 329.462 42.207C328.805 42.581 328.267 43.0797 327.847 43.703C327.428 44.3263 327.116 45.0347 326.912 45.828C326.72 46.6213 326.623 47.4373 326.623 48.276C326.623 49.194 326.72 50.095 326.912 50.979C327.116 51.863 327.428 52.6507 327.847 53.342C328.278 54.0333 328.828 54.5943 329.496 55.025C330.176 55.4443 330.992 55.654 331.944 55.654C332.84 55.654 333.616 55.467 334.273 55.093C334.931 54.719 335.475 54.226 335.905 53.614C336.336 52.9907 336.653 52.2823 336.857 51.489C337.061 50.6957 337.163 49.8853 337.163 49.058ZM353.317 42.377C353.113 42.275 352.869 42.173 352.586 42.071C352.303 41.969 352.008 41.8783 351.702 41.799C351.396 41.7197 351.084 41.6573 350.767 41.612C350.461 41.5667 350.166 41.544 349.883 41.544C348.682 41.544 347.832 41.7253 347.333 42.088C346.834 42.4393 346.585 42.972 346.585 43.686C346.585 44.162 346.749 44.5587 347.078 44.876C347.407 45.182 347.832 45.4597 348.353 45.709C348.874 45.9583 349.452 46.1963 350.087 46.423C350.733 46.6383 351.362 46.899 351.974 47.205C352.416 47.4203 352.864 47.6753 353.317 47.97C353.77 48.2647 354.178 48.6103 354.541 49.007C354.904 49.4037 355.198 49.8513 355.425 50.35C355.652 50.8487 355.765 51.4097 355.765 52.033C355.765 53.1777 355.572 54.1467 355.187 54.94C354.802 55.7333 354.275 56.3793 353.606 56.878C352.949 57.3653 352.172 57.7223 351.277 57.949C350.393 58.1757 349.447 58.289 348.438 58.289C348.053 58.289 347.616 58.2493 347.129 58.17C346.642 58.102 346.154 58.0057 345.667 57.881C345.18 57.745 344.715 57.5863 344.273 57.405C343.831 57.2237 343.463 57.031 343.168 56.827L344.29 54.583C344.562 54.719 344.885 54.8493 345.259 54.974C345.633 55.0873 346.018 55.1893 346.415 55.28C346.812 55.3707 347.203 55.4443 347.588 55.501C347.985 55.5463 348.336 55.569 348.642 55.569C349.163 55.569 349.662 55.518 350.138 55.416C350.625 55.3027 351.05 55.127 351.413 54.889C351.787 54.651 352.082 54.345 352.297 53.971C352.524 53.5857 352.637 53.1153 352.637 52.56C352.637 52.1407 352.546 51.7723 352.365 51.455C352.195 51.1377 351.957 50.86 351.651 50.622C351.356 50.3727 351.011 50.146 350.614 49.942C350.217 49.738 349.798 49.5453 349.356 49.364C348.914 49.1713 348.461 48.9787 347.996 48.786C347.531 48.582 347.089 48.361 346.67 48.123C346.273 47.8963 345.888 47.647 345.514 47.375C345.151 47.103 344.828 46.797 344.545 46.457C344.262 46.117 344.035 45.7373 343.865 45.318C343.695 44.8873 343.61 44.4 343.61 43.856C343.61 42.9947 343.763 42.258 344.069 41.646C344.375 41.0227 344.806 40.5183 345.361 40.133C345.916 39.7477 346.585 39.4643 347.367 39.283C348.149 39.1017 349.01 39.011 349.951 39.011C350.382 39.011 350.807 39.045 351.226 39.113C351.645 39.181 352.048 39.2717 352.433 39.385C352.818 39.487 353.17 39.6117 353.487 39.759C353.804 39.9063 354.076 40.0537 354.303 40.201L353.317 42.377ZM212.407 82.884C211.954 82.884 211.506 82.9747 211.064 83.156C210.622 83.3373 210.197 83.581 209.789 83.887C209.381 84.193 208.996 84.55 208.633 84.958C208.27 85.366 207.936 85.7967 207.63 86.25V99H204.4V80.3L207.63 79.96V83.785L209.33 80.81C209.477 80.7193 209.659 80.6287 209.874 80.538C210.101 80.436 210.356 80.351 210.639 80.283C210.922 80.2037 211.223 80.1413 211.54 80.096C211.869 80.0393 212.203 80.011 212.543 80.011C213.053 80.011 213.478 80.0563 213.818 80.147C214.169 80.2377 214.43 80.3227 214.6 80.402L214.43 83.224C214.26 83.1673 214.005 83.0993 213.665 83.02C213.325 82.9293 212.906 82.884 212.407 82.884ZM231.035 96.807C230.684 97.1697 230.299 97.504 229.879 97.81C229.46 98.116 228.995 98.3823 228.485 98.609C227.975 98.8243 227.409 98.9887 226.785 99.102C226.173 99.2267 225.488 99.289 224.728 99.289C223.221 99.289 221.935 99.0227 220.869 98.49C219.804 97.9573 218.931 97.2433 218.251 96.348C217.583 95.4527 217.09 94.427 216.772 93.271C216.466 92.115 216.313 90.908 216.313 89.65C216.313 88.8453 216.387 88.052 216.534 87.27C216.682 86.4767 216.903 85.723 217.197 85.009C217.492 84.295 217.86 83.632 218.302 83.02C218.744 82.408 219.26 81.881 219.849 81.439C220.439 80.997 221.102 80.6513 221.838 80.402C222.586 80.1413 223.408 80.011 224.303 80.011C225.527 80.011 226.587 80.2093 227.482 80.606C228.378 81.0027 229.12 81.558 229.709 82.272C230.299 82.986 230.735 83.8417 231.018 84.839C231.302 85.8363 231.443 86.9413 231.443 88.154C231.443 88.5053 231.432 88.8907 231.409 89.31C231.387 89.7293 231.353 90.126 231.307 90.5H219.543C219.543 91.35 219.657 92.1433 219.883 92.88C220.121 93.6167 220.45 94.2627 220.869 94.818C221.289 95.362 221.793 95.7927 222.382 96.11C222.983 96.416 223.652 96.569 224.388 96.569C225.114 96.569 225.743 96.518 226.275 96.416C226.819 96.3027 227.284 96.1723 227.669 96.025C228.055 95.8663 228.366 95.7077 228.604 95.549C228.854 95.3903 229.046 95.2657 229.182 95.175L231.035 96.807ZM228.213 87.95C228.225 87.8253 228.23 87.7007 228.23 87.576C228.242 87.4513 228.247 87.3267 228.247 87.202C228.247 86.556 228.174 85.961 228.026 85.417C227.879 84.873 227.652 84.4027 227.346 84.006C227.052 83.598 226.672 83.2807 226.207 83.054C225.743 82.8273 225.193 82.714 224.558 82.714C223.799 82.714 223.147 82.8387 222.603 83.088C222.071 83.326 221.617 83.6377 221.243 84.023C220.881 84.397 220.586 84.8107 220.359 85.264C220.144 85.7173 219.98 86.148 219.866 86.556L218.982 88.409L222.008 87.95H228.213ZM248.947 99H245.377V96.246L243.779 98.15C243.586 98.2973 243.365 98.439 243.116 98.575C242.866 98.711 242.611 98.8357 242.351 98.949C242.101 99.051 241.846 99.1303 241.586 99.187C241.336 99.255 241.104 99.289 240.889 99.289C240.039 99.289 239.223 99.1587 238.441 98.898C237.67 98.626 236.99 98.235 236.401 97.725C235.823 97.2037 235.358 96.5633 235.007 95.804C234.667 95.0333 234.497 94.1493 234.497 93.152C234.497 92.098 234.706 91.1857 235.126 90.415C235.556 89.633 236.1 88.987 236.758 88.477C237.426 87.9557 238.169 87.5703 238.985 87.321C239.801 87.0603 240.6 86.93 241.382 86.93C242.028 86.93 242.594 86.964 243.082 87.032C243.58 87.1 244 87.1793 244.34 87.27C244.736 87.372 245.082 87.4853 245.377 87.61V87.015C245.377 86.3463 245.337 85.7457 245.258 85.213C245.178 84.6803 245.014 84.2327 244.765 83.87C244.527 83.496 244.175 83.2127 243.711 83.02C243.257 82.8273 242.651 82.731 241.892 82.731C241.28 82.731 240.69 82.7763 240.124 82.867C239.557 82.9463 239.053 83.037 238.611 83.139C238.089 83.2637 237.608 83.394 237.166 83.53L235.942 81.252C236.44 81.0253 237.007 80.8213 237.642 80.64C238.186 80.4813 238.832 80.3397 239.58 80.215C240.328 80.079 241.155 80.011 242.062 80.011C243.365 80.011 244.442 80.1867 245.292 80.538C246.142 80.8893 246.81 81.3823 247.298 82.017C247.785 82.6517 248.125 83.4167 248.318 84.312C248.51 85.196 248.607 86.182 248.607 87.27V95.94L248.947 99ZM245.377 89.939C245.059 89.8937 244.719 89.8483 244.357 89.803C244.051 89.769 243.699 89.735 243.303 89.701C242.906 89.667 242.492 89.65 242.062 89.65C241.427 89.65 240.843 89.7123 240.311 89.837C239.789 89.9617 239.336 90.1657 238.951 90.449C238.565 90.721 238.265 91.078 238.05 91.52C237.834 91.962 237.727 92.5003 237.727 93.135C237.727 93.645 237.812 94.1097 237.982 94.529C238.152 94.9483 238.384 95.311 238.679 95.617C238.973 95.923 239.319 96.161 239.716 96.331C240.124 96.4897 240.56 96.569 241.025 96.569C241.24 96.569 241.467 96.5407 241.705 96.484C241.954 96.416 242.198 96.331 242.436 96.229C242.685 96.127 242.929 96.008 243.167 95.872C243.416 95.736 243.648 95.6 243.864 95.464C244.374 95.1353 244.878 94.7613 245.377 94.342V89.939ZM257.8 92.608C257.8 93.356 257.84 93.985 257.919 94.495C258.01 94.9937 258.134 95.4017 258.293 95.719C258.463 96.025 258.667 96.246 258.905 96.382C259.154 96.5067 259.438 96.569 259.755 96.569C260.004 96.569 260.231 96.5577 260.435 96.535C260.639 96.501 260.815 96.4613 260.962 96.416C261.132 96.3707 261.285 96.3197 261.421 96.263L262.594 98.32C262.503 98.4107 262.356 98.5127 262.152 98.626C261.959 98.728 261.727 98.83 261.455 98.932C261.183 99.034 260.871 99.119 260.52 99.187C260.18 99.255 259.812 99.289 259.415 99.289C258.395 99.289 257.568 99.102 256.933 98.728C256.298 98.354 255.805 97.844 255.454 97.198C255.103 96.552 254.865 95.804 254.74 94.954C254.627 94.0927 254.57 93.1747 254.57 92.2V75.2L254.23 71.8L257.8 71.46V92.608ZM269.687 99H266.457V81.065L269.687 80.725V99ZM266.355 73.5H269.789V76.9H266.355V73.5ZM288.21 96.28L288.55 99H274.627L274.287 98.15L282.158 84.958L284.742 82.34L281.257 83.02H275.766L275.426 80.3H287.394L287.734 81.133L280.101 94.24L277.534 96.96L281.019 96.28H288.21ZM305.89 99H302.32V96.246L300.722 98.15C300.529 98.2973 300.308 98.439 300.059 98.575C299.81 98.711 299.555 98.8357 299.294 98.949C299.045 99.051 298.79 99.1303 298.529 99.187C298.28 99.255 298.047 99.289 297.832 99.289C296.982 99.289 296.166 99.1587 295.384 98.898C294.613 98.626 293.933 98.235 293.344 97.725C292.766 97.2037 292.301 96.5633 291.95 95.804C291.61 95.0333 291.44 94.1493 291.44 93.152C291.44 92.098 291.65 91.1857 292.069 90.415C292.5 89.633 293.044 88.987 293.701 88.477C294.37 87.9557 295.112 87.5703 295.928 87.321C296.744 87.0603 297.543 86.93 298.325 86.93C298.971 86.93 299.538 86.964 300.025 87.032C300.524 87.1 300.943 87.1793 301.283 87.27C301.68 87.372 302.025 87.4853 302.32 87.61V87.015C302.32 86.3463 302.28 85.7457 302.201 85.213C302.122 84.6803 301.957 84.2327 301.708 83.87C301.47 83.496 301.119 83.2127 300.654 83.02C300.201 82.8273 299.594 82.731 298.835 82.731C298.223 82.731 297.634 82.7763 297.067 82.867C296.5 82.9463 295.996 83.037 295.554 83.139C295.033 83.2637 294.551 83.394 294.109 83.53L292.885 81.252C293.384 81.0253 293.95 80.8213 294.585 80.64C295.129 80.4813 295.775 80.3397 296.523 80.215C297.271 80.079 298.098 80.011 299.005 80.011C300.308 80.011 301.385 80.1867 302.235 80.538C303.085 80.8893 303.754 81.3823 304.241 82.017C304.728 82.6517 305.068 83.4167 305.261 84.312C305.454 85.196 305.55 86.182 305.55 87.27V95.94L305.89 99ZM302.32 89.939C302.003 89.8937 301.663 89.8483 301.3 89.803C300.994 89.769 300.643 89.735 300.246 89.701C299.849 89.667 299.436 89.65 299.005 89.65C298.37 89.65 297.787 89.7123 297.254 89.837C296.733 89.9617 296.279 90.1657 295.894 90.449C295.509 90.721 295.208 91.078 294.993 91.52C294.778 91.962 294.67 92.5003 294.67 93.135C294.67 93.645 294.755 94.1097 294.925 94.529C295.095 94.9483 295.327 95.311 295.622 95.617C295.917 95.923 296.262 96.161 296.659 96.331C297.067 96.4897 297.503 96.569 297.968 96.569C298.183 96.569 298.41 96.5407 298.648 96.484C298.897 96.416 299.141 96.331 299.379 96.229C299.628 96.127 299.872 96.008 300.11 95.872C300.359 95.736 300.592 95.6 300.807 95.464C301.317 95.1353 301.821 94.7613 302.32 94.342V89.939ZM319.265 83.02C318.223 83.02 317.322 83.2183 316.562 83.615C315.803 84.0003 315.174 84.5273 314.675 85.196C314.177 85.8647 313.808 86.6523 313.57 87.559C313.332 88.4657 313.213 89.4347 313.213 90.466C313.213 91.4747 313.332 92.3587 313.57 93.118C313.808 93.8773 314.114 94.512 314.488 95.022C314.874 95.532 315.31 95.9173 315.797 96.178C316.285 96.4273 316.783 96.552 317.293 96.552C317.826 96.552 318.319 96.4613 318.772 96.28C319.237 96.0987 319.662 95.872 320.047 95.6C320.433 95.328 320.778 95.0333 321.084 94.716C321.39 94.3873 321.657 94.0813 321.883 93.798V83.02H319.265ZM321.883 99V96.246L320.268 98.167C320.064 98.303 319.843 98.439 319.605 98.575C319.367 98.711 319.101 98.83 318.806 98.932C318.512 99.034 318.183 99.119 317.82 99.187C317.469 99.255 317.072 99.289 316.63 99.289C315.701 99.289 314.834 99.0623 314.029 98.609C313.225 98.1443 312.522 97.504 311.921 96.688C311.332 95.872 310.862 94.903 310.51 93.781C310.17 92.6477 310 91.4067 310 90.058C310 88.698 310.216 87.4287 310.646 86.25C311.088 85.06 311.712 84.023 312.516 83.139C313.321 82.255 314.29 81.5637 315.423 81.065C316.568 80.555 317.843 80.3 319.248 80.3H321.883V71.46L325.113 71.8V95.94L325.453 99H321.883ZM338.683 99.289C337.425 99.289 336.275 99.0453 335.232 98.558C334.201 98.0593 333.311 97.3793 332.563 96.518C331.815 95.6453 331.231 94.6197 330.812 93.441C330.404 92.251 330.2 90.9703 330.2 89.599C330.2 88.2277 330.398 86.9583 330.795 85.791C331.192 84.6123 331.758 83.598 332.495 82.748C333.232 81.8867 334.121 81.218 335.164 80.742C336.218 80.2547 337.391 80.011 338.683 80.011C339.941 80.011 341.091 80.2547 342.134 80.742C343.177 81.218 344.072 81.8867 344.82 82.748C345.568 83.598 346.152 84.6123 346.571 85.791C346.99 86.9583 347.2 88.2277 347.2 89.599C347.2 90.9703 346.996 92.251 346.588 93.441C346.191 94.6197 345.625 95.6453 344.888 96.518C344.151 97.3793 343.256 98.0593 342.202 98.558C341.148 99.0453 339.975 99.289 338.683 99.289ZM343.97 90.058C343.97 89.14 343.868 88.239 343.664 87.355C343.471 86.471 343.16 85.6833 342.729 84.992C342.298 84.2893 341.743 83.7227 341.063 83.292C340.383 82.8613 339.567 82.646 338.615 82.646C337.708 82.646 336.926 82.833 336.269 83.207C335.612 83.581 335.073 84.0797 334.654 84.703C334.235 85.3263 333.923 86.0347 333.719 86.828C333.526 87.6213 333.43 88.4373 333.43 89.276C333.43 90.194 333.526 91.095 333.719 91.979C333.923 92.863 334.235 93.6507 334.654 94.342C335.085 95.0333 335.634 95.5943 336.303 96.025C336.983 96.4443 337.799 96.654 338.751 96.654C339.646 96.654 340.423 96.467 341.08 96.093C341.737 95.719 342.281 95.226 342.712 94.614C343.143 93.9907 343.46 93.2823 343.664 92.489C343.868 91.6957 343.97 90.8853 343.97 90.058ZM360.124 83.377C359.92 83.275 359.676 83.173 359.393 83.071C359.109 82.969 358.815 82.8783 358.509 82.799C358.203 82.7197 357.891 82.6573 357.574 82.612C357.268 82.5667 356.973 82.544 356.69 82.544C355.488 82.544 354.638 82.7253 354.14 83.088C353.641 83.4393 353.392 83.972 353.392 84.686C353.392 85.162 353.556 85.5587 353.885 85.876C354.213 86.182 354.638 86.4597 355.16 86.709C355.681 86.9583 356.259 87.1963 356.894 87.423C357.54 87.6383 358.169 87.899 358.781 88.205C359.223 88.4203 359.67 88.6753 360.124 88.97C360.577 89.2647 360.985 89.6103 361.348 90.007C361.71 90.4037 362.005 90.8513 362.232 91.35C362.458 91.8487 362.572 92.4097 362.572 93.033C362.572 94.1777 362.379 95.1467 361.994 95.94C361.608 96.7333 361.081 97.3793 360.413 97.878C359.755 98.3653 358.979 98.7223 358.084 98.949C357.2 99.1757 356.253 99.289 355.245 99.289C354.859 99.289 354.423 99.2493 353.936 99.17C353.448 99.102 352.961 99.0057 352.474 98.881C351.986 98.745 351.522 98.5863 351.08 98.405C350.638 98.2237 350.269 98.031 349.975 97.827L351.097 95.583C351.369 95.719 351.692 95.8493 352.066 95.974C352.44 96.0873 352.825 96.1893 353.222 96.28C353.618 96.3707 354.009 96.4443 354.395 96.501C354.791 96.5463 355.143 96.569 355.449 96.569C355.97 96.569 356.469 96.518 356.945 96.416C357.432 96.3027 357.857 96.127 358.22 95.889C358.594 95.651 358.888 95.345 359.104 94.971C359.33 94.5857 359.444 94.1153 359.444 93.56C359.444 93.1407 359.353 92.7723 359.172 92.455C359.002 92.1377 358.764 91.86 358.458 91.622C358.163 91.3727 357.817 91.146 357.421 90.942C357.024 90.738 356.605 90.5453 356.163 90.364C355.721 90.1713 355.267 89.9787 354.803 89.786C354.338 89.582 353.896 89.361 353.477 89.123C353.08 88.8963 352.695 88.647 352.321 88.375C351.958 88.103 351.635 87.797 351.352 87.457C351.068 87.117 350.842 86.7373 350.672 86.318C350.502 85.8873 350.417 85.4 350.417 84.856C350.417 83.9947 350.57 83.258 350.876 82.646C351.182 82.0227 351.612 81.5183 352.168 81.133C352.723 80.7477 353.392 80.4643 354.174 80.283C354.956 80.1017 355.817 80.011 356.758 80.011C357.188 80.011 357.613 80.045 358.033 80.113C358.452 80.181 358.854 80.2717 359.24 80.385C359.625 80.487 359.976 80.6117 360.294 80.759C360.611 80.9063 360.883 81.0537 361.11 81.201L360.124 83.377Z" fill="#F37500"/>
<path d="M70.0223 85.5H61.9223V99H52.4723V85.5H25.6973V77.805L47.4773 30.6L55.9823 31.5L37.3073 72L33.1223 78.3H52.4723V59.985L61.9223 60.75V78.3H70.6973L70.0223 85.5ZM106.732 99.765C104.182 99.765 101.842 99.285 99.7124 98.325C97.5824 97.335 95.6624 96 93.9524 94.32C92.2724 92.64 90.7874 90.675 89.4974 88.425C88.2374 86.175 87.1724 83.775 86.3024 81.225C85.4624 78.645 84.8324 76.005 84.4124 73.305C83.9924 70.575 83.7824 67.89 83.7824 65.25C83.7824 62.55 83.9624 59.82 84.3224 57.06C84.6824 54.3 85.2524 51.645 86.0324 49.095C86.8124 46.545 87.8024 44.16 89.0024 41.94C90.2324 39.69 91.6874 37.74 93.3674 36.09C95.0774 34.44 97.0274 33.135 99.2174 32.175C101.437 31.215 103.942 30.735 106.732 30.735C109.282 30.735 111.622 31.23 113.752 32.22C115.882 33.18 117.787 34.5 119.467 36.18C121.177 37.86 122.662 39.825 123.922 42.075C125.212 44.325 126.277 46.74 127.117 49.32C127.987 51.87 128.632 54.51 129.052 57.24C129.472 59.97 129.682 62.64 129.682 65.25C129.682 67.95 129.502 70.68 129.142 73.44C128.782 76.2 128.212 78.855 127.432 81.405C126.652 83.955 125.647 86.355 124.417 88.605C123.217 90.825 121.762 92.76 120.052 94.41C118.372 96.06 116.422 97.365 114.202 98.325C111.982 99.285 109.492 99.765 106.732 99.765ZM93.0974 63.315C93.0974 65.055 93.1574 66.975 93.2774 69.075C93.3974 71.145 93.6374 73.245 93.9974 75.375C94.3574 77.475 94.8524 79.515 95.4824 81.495C96.1424 83.475 96.9824 85.245 98.0024 86.805C99.0524 88.335 100.312 89.565 101.782 90.495C103.282 91.425 105.052 91.89 107.092 91.89C108.922 91.89 110.512 91.545 111.862 90.855C113.242 90.135 114.427 89.175 115.417 87.975C116.407 86.745 117.217 85.335 117.847 83.745C118.477 82.125 118.972 80.4 119.332 78.57C119.722 76.74 119.992 74.85 120.142 72.9C120.292 70.95 120.367 69.045 120.367 67.185C120.367 65.445 120.307 63.54 120.187 61.47C120.067 59.37 119.827 57.27 119.467 55.17C119.107 53.07 118.597 51.03 117.937 49.05C117.307 47.04 116.467 45.27 115.417 43.74C114.397 42.21 113.137 40.98 111.637 40.05C110.167 39.12 108.412 38.655 106.372 38.655C104.542 38.655 102.937 39.015 101.557 39.735C100.207 40.425 99.0374 41.37 98.0474 42.57C97.0574 43.77 96.2474 45.18 95.6174 46.8C94.9874 48.42 94.4774 50.145 94.0874 51.975C93.7274 53.805 93.4724 55.695 93.3224 57.645C93.1724 59.565 93.0974 61.455 93.0974 63.315ZM165.268 99.765C162.718 99.765 160.378 99.285 158.248 98.325C156.118 97.335 154.198 96 152.488 94.32C150.808 92.64 149.323 90.675 148.033 88.425C146.773 86.175 145.708 83.775 144.838 81.225C143.998 78.645 143.368 76.005 142.948 73.305C142.528 70.575 142.318 67.89 142.318 65.25C142.318 62.55 142.498 59.82 142.858 57.06C143.218 54.3 143.788 51.645 144.568 49.095C145.348 46.545 146.338 44.16 147.538 41.94C148.768 39.69 150.223 37.74 151.903 36.09C153.613 34.44 155.563 33.135 157.753 32.175C159.973 31.215 162.478 30.735 165.268 30.735C167.818 30.735 170.158 31.23 172.288 32.22C174.418 33.18 176.323 34.5 178.003 36.18C179.713 37.86 181.198 39.825 182.458 42.075C183.748 44.325 184.813 46.74 185.653 49.32C186.523 51.87 187.168 54.51 187.588 57.24C188.008 59.97 188.218 62.64 188.218 65.25C188.218 67.95 188.038 70.68 187.678 73.44C187.318 76.2 186.748 78.855 185.968 81.405C185.188 83.955 184.183 86.355 182.953 88.605C181.753 90.825 180.298 92.76 178.588 94.41C176.908 96.06 174.958 97.365 172.738 98.325C170.518 99.285 168.028 99.765 165.268 99.765ZM151.633 63.315C151.633 65.055 151.693 66.975 151.813 69.075C151.933 71.145 152.173 73.245 152.533 75.375C152.893 77.475 153.388 79.515 154.018 81.495C154.678 83.475 155.518 85.245 156.538 86.805C157.588 88.335 158.848 89.565 160.318 90.495C161.818 91.425 163.588 91.89 165.628 91.89C167.458 91.89 169.048 91.545 170.398 90.855C171.778 90.135 172.963 89.175 173.953 87.975C174.943 86.745 175.753 85.335 176.383 83.745C177.013 82.125 177.508 80.4 177.868 78.57C178.258 76.74 178.528 74.85 178.678 72.9C178.828 70.95 178.903 69.045 178.903 67.185C178.903 65.445 178.843 63.54 178.723 61.47C178.603 59.37 178.363 57.27 178.003 55.17C177.643 53.07 177.133 51.03 176.473 49.05C175.843 47.04 175.003 45.27 173.953 43.74C172.933 42.21 171.673 40.98 170.173 40.05C168.703 39.12 166.948 38.655 164.908 38.655C163.078 38.655 161.473 39.015 160.093 39.735C158.743 40.425 157.573 41.37 156.583 42.57C155.593 43.77 154.783 45.18 154.153 46.8C153.523 48.42 153.013 50.145 152.623 51.975C152.263 53.805 152.008 55.695 151.858 57.645C151.708 59.565 151.633 61.455 151.633 63.315Z" fill="#F37500"/>
</svg>
